<svg height="512" viewBox="0 0 480 480" width="512" xmlns="http://www.w3.org/2000/svg"><g id="Layer_2" data-name="Layer 2"><g id="_04.D_" data-name="04.D_"><path id="border" d="m240 20a220.07 220.07 0 0 1 85.63 422.72 220.06 220.06 0 0 1 -171.26-405.44 218.55 218.55 0 0 1 85.63-17.28m0-20c-132.55 0-240 107.45-240 240 0 132.55 107.45 240 240 240 132.55 0 240-107.45 240-240 0-132.55-107.45-240-240-240z"/><path d="m339 240c0 59.4-44.1 105-102 105h-84v-210h84c57.9 0 102 45.6 102 105zm-46.2 0c0-36-22.8-58.8-55.8-58.8h-36v117.6h36c33 0 55.8-22.8 55.8-58.8z"/></g></g></svg>